# xmcd
#
# Track frame offsets:
#	150
#	9107
#	20070
#	30670
#	40555
#	52085
#	63562
#	72687
#	82700
#	92570
#
# Disc length: 1405 seconds
#
# Revision: 0
# Processed by: cddbd v1.5PL3 Copyright (c) Steve Scherf et al.
# Submitted via: dBpowerAMP V4.0
#
DISCID=76057b0a
DTITLE=The Drifters - The Drifters Greatest Hits
DYEAR=1900
DGENRE=Blues
TTITLE0=There Goes My Baby
TTITLE1=This Magic Moment
TTITLE2=Dance With Me
TTITLE3=Save The Last Dance For Me
TTITLE4=Sweets For My Sweet
TTITLE5=Under The Boardwalk
TTITLE6=Count His Tears
TTITLE7=Up On The Roof
TTITLE8=Please Stay
TTITLE9=On The Boardwalk
EXTD=
EXTT0=
EXTT1=
EXTT2=
EXTT3=
EXTT4=
EXTT5=
EXTT6=
EXTT7=
EXTT8=
EXTT9=
PLAYORDER=
